<?xml version="1.0" encoding="utf-8"?>
<svg version="1.1" id="Layer_1" xmlns="http://www.w3.org/2000/svg" x="0px" y="0px" width="50px" height="50px" viewBox="0 0 50 50" enable-background="new 0 0 50 50">
  <g>
    <path d="M37.468,17.123C37.468,29.596,25,45.346,25,45.346s-12.468-14.93-12.468-28.223 c0-6.885,5.581-12.468,12.468-12.468C31.885,4.655,37.468,10.237,37.468,17.123z" fill="#FFFFFF"/>
  </g>
  <path d="M 20.655 15.153 C 21.38 14.999 22.95 14.939 23.77 15.153 C 24.431 15.325 24.873 15.952 25.328 16.087 C 25.677 16.191 25.902 16.125 26.262 16.087 C 26.707 16.041 27.292 15.719 27.82 15.776 C 28.382 15.836 29.128 16.077 29.533 16.502 C 29.955 16.945 30.211 17.908 30.26 18.423 C 30.296 18.803 29.961 19.086 30.052 19.358 C 30.149 19.645 30.68 19.694 30.883 20.085 C 31.165 20.628 31.492 21.771 31.298 22.577 C 31.087 23.454 30.331 24.598 29.481 25.12 C 28.59 25.669 26.42 25.472 26.003 25.692 C 25.847 25.774 25.956 25.854 25.847 25.951 C 25.651 26.125 25.107 26.471 24.705 26.574 C 24.31 26.675 23.875 26.698 23.459 26.574 C 22.993 26.435 22.377 26.139 22.057 25.692 C 21.706 25.201 21.818 24.126 21.538 23.667 C 21.324 23.316 21.01 23.377 20.707 22.992 C 20.22 22.371 19.368 20.869 19.046 19.877 C 18.765 19.011 18.611 18.113 18.734 17.385 C 18.845 16.731 19.251 16.045 19.617 15.672 C 19.916 15.367 20.167 15.256 20.655 15.153 Z" style="stroke: rgb(3, 3, 3); fill: rgb(255, 255, 255);"/>
</svg>